<svg xmlns="http://www.w3.org/2000/svg" viewBox="0 0 257.05 416.13"><defs><style>.cls-1{fill:#231f20;}</style></defs><g id="Capa_2" data-name="Capa 2"><g id="Layer_1" data-name="Layer 1"><path class="cls-1" d="M256.75,415.41a243,243,0,0,1-35.66-4.07,202.78,202.78,0,0,1-24.71-6.16c-.67-.36-1.35-.73-2-1.12A46.92,46.92,0,0,1,181,383c2.6-8.17.72-37.13-7.68-34.48-10.18,3.21,1.91,25.92,6.06,33.14a47,47,0,0,0,10.37,19.46c-7.94-5.56-16.25-14.09-22.88-27.18-.08-9.11-9-35.43-16.31-30.8-6.58,4.18,9.85,24.65,14.84,30.6a82.7,82.7,0,0,0,9,14.45,74.84,74.84,0,0,0-6.77-4.71c-2.87-3.85-10.65-10.15-17.81-14-6.3-9-10.79-19.48-11.32-31.43a.61.61,0,0,0-1.22,0c.5,11.41,4.53,21.51,10.31,30.25-5.42-2.57-10.1-3.35-11.39,0-2.19,5.65,12.69,11,23,13.93a129.89,129.89,0,0,0,23.38,18,227.82,227.82,0,0,1-28.31-13.25,223.25,223.25,0,0,1-29.48-19.85,219,219,0,0,1-21-18.88,138,138,0,0,1-6.92-16.14,55.08,55.08,0,0,1-.22-27.45C103.77,299.07,119.1,276,111,273c-6.83-2.47-12.64,19.49-14.75,28.65A53.64,53.64,0,0,0,94,323.53a142.62,142.62,0,0,1-5.54-32.82C92.33,282.3,95.6,255,87.07,256c-7.8.92-1.72,26.86.15,34.17a140.06,140.06,0,0,0,2.54,21.05,77.59,77.59,0,0,0-5.42-10.06c-1.73-8.9-15.45-33.2-21.77-27.28-5.72,5.36,14.51,22.59,20.38,27.39a77.77,77.77,0,0,1,8.45,17.44.89.89,0,0,0,.08.17c1.26,5,2.69,9.53,4.15,13.62.13.48.22.76.23.78a.57.57,0,0,0,.13.21c1.7,4.66,3.43,8.67,5,11.93-.73-.79-1.47-1.58-2.19-2.37Q93,336.73,87.7,330a45.11,45.11,0,0,1-3.9-20.7.61.61,0,0,0-1.22-.08,44.61,44.61,0,0,0,2.51,17.4Q80.82,321,76.9,315.07a209.68,209.68,0,0,1-24.27-49.44,56.91,56.91,0,0,1,10.09-38.76.61.61,0,1,0-1-.69,58.1,58.1,0,0,0-10.58,34.88q-1.68-5.31-3.11-10.71l-.74-3.12a93.55,93.55,0,0,1,1.3-10,36.57,36.57,0,0,1,9.25-16.08c6.32-1.12,22.33-9.16,18.68-13.51-2.87-3.41-12.13,5.34-17,10.37a34.76,34.76,0,0,0-9.18,11.35,94.64,94.64,0,0,1,7.5-19.3c5.2-4,15.66-18.11,10.49-20.34-4.57-2-9.47,13.2-11.15,19a92.6,92.6,0,0,0-5.5,12.34,49.47,49.47,0,0,0,0-6.6c1.82-6.31,1.86-23.87-3.62-22.59-4.91,1.13.32,16.58,2.35,22.07a51.92,51.92,0,0,1-.91,13.59v.11c-.94,3.31-1.65,6.43-2.17,9.3-.09.33-.13.54-.14.55a.67.67,0,0,0,0,.2c-.37,2.11-.65,4.06-.85,5.83L46,241.68l-1.63-8.76c-.13-.74-.28-1.46-.4-2.2l-.29-2.21-.59-4.42c-.19-1.47-.42-2.94-.57-4.42l-.37-4.45c-.61-5.92-.68-11.88-.84-17.82,0-6,.19-11.91.7-17.85a210.63,210.63,0,0,1,4.38-29.43c.39-1.08.81-2.23,1.27-3.42.5-.93,1.08-2,1.77-3a19.78,19.78,0,0,1,8.34-6.48c3.83.54,12.74-.37,11.8-3.21-.68-2-5.72-.32-9.33,1.21a18.33,18.33,0,0,0-6.87,3,51.91,51.91,0,0,1,6.85-6.95c3.77-1.38,10.87-6,8.81-8.06-1.72-1.72-6.32,3.42-8.76,6.43a51.66,51.66,0,0,0-5.2,4.8,26.74,26.74,0,0,0,.95-2.67,24.31,24.31,0,0,0,3.37-8.89c4.94-7.72,11-14.5,17.95-17.74a.61.61,0,0,0-.51-1.11c-6.88,3.19-12.78,9.53-17.67,16.84a1.19,1.19,0,0,0-.92-.68c-1.81-.27-2.63,3.54-3,7.09a135,135,0,0,0-6.55,13.5,215.38,215.38,0,0,1,10.57-30.21c.24-.57.5-1.13.76-1.7a35.94,35.94,0,0,1,11.2-10c6.39.61,24-2.89,21.6-8.06-1.86-4.05-13.11,1.93-19.12,5.5a34.52,34.52,0,0,0-11.73,8.36l.18-.38a94.67,94.67,0,0,1,12-16.1c6.08-2.46,19.91-13.3,15.52-16.82C85.79,68.12,77,81.45,73.88,86.58a94.07,94.07,0,0,0-7.3,8.67c3-5.56,6.14-11,9.56-16.3q4.6-7,9.73-13.74A70,70,0,0,1,93.68,60a27.27,27.27,0,0,1,13.87-2.47c4,3.11,15.92,8.12,16.63,4,.53-3.09-7.8-4.22-13.17-4.62a25.11,25.11,0,0,0-10.6-.31,70,70,0,0,1,13.69-4.52c5.1.93,17.61,0,16.41-3.95-1-3.4-11.11.55-15.66,2.54a69.56,69.56,0,0,0-9.54,2.66,36.7,36.7,0,0,0,3.34-2.9c4.68-2.33,14.09-10.42,10.79-12.87-2.92-2.17-8.87,7.45-11.26,11.61A38.66,38.66,0,0,1,99.6,55.6l-.07.06c-2.32,1.05-4.43,2.15-6.32,3.23l-.46.23a.52.52,0,0,0-.11.1c-1.53.89-2.9,1.75-4.09,2.56Q93.13,56,98.07,50.59q5.76-6.26,12-12.07a95,95,0,0,1,8-6,36.6,36.6,0,0,1,18-4.7c5.23,3.73,22.18,9.52,22.73,3.86.42-4.44-12.32-4.91-19.31-4.84a34.73,34.73,0,0,0-14.53,1.41A94.67,94.67,0,0,1,144,20c6.49.92,23.89-1.52,21.86-6.77-1.79-4.64-16.05,2.5-21.35,5.35a95.41,95.41,0,0,0-12.66,4.72,51.08,51.08,0,0,0,4.74-4.58,42.12,42.12,0,0,0,8.7-7q4.5-2.76,9.14-5.32a.31.31,0,0,0,.12-.41.3.3,0,0,0-.41-.13c-2.37,1.25-4.7,2.54-7,3.88,3.39-3.92,5.47-7.88,3-9.42-3.92-2.49-10.48,9.69-13.43,15.76q-6.69,4.34-13.07,9.13a225.7,225.7,0,0,0-22.51,19.63c.33-.65.67-1.35,1-2.1,0,0,0,0,0-.06a3.24,3.24,0,0,0,.14-.35c.65-1.46,1.3-3.08,1.9-4.86,0,0,0,0,0,0a27.91,27.91,0,0,1,4.49-7.2c3.07-2.24,8.76-6.78,7.07-8.63-1.93-2.12-6.77,4.55-8.39,8.28a26.79,26.79,0,0,0-1.7,2.27,50.37,50.37,0,0,0,1.1-7c1.15-3.7,2.87-10.38.48-10.86-2.85-.56-2.74,7.91-1.8,11.8a51.5,51.5,0,0,1-2,9.56,18.13,18.13,0,0,0-1.35-7.35c-.74-3.85-2.11-9-4.18-8.43-2.88.8,1.31,8.71,3.89,11.59a19.82,19.82,0,0,1-.73,10.5,51.46,51.46,0,0,1-3.31,6.2c-.38.39-.76.77-1.13,1.16A225.82,225.82,0,0,0,78.8,70.94c4.89-13.84,6.55-30.72,6.64-31.66a.62.62,0,0,0-.55-.67.64.64,0,0,0-.67.55c0,.26-2.12,21.61-8.39,35.94-.58.83-1.16,1.66-1.73,2.5-1.39,2.08-2.74,4.18-4.07,6.31,2.32-7,3.62-15.82-.42-16-5-.21-4.09,16.07-3.59,21.91-.09.42-.18.84-.27,1.24q-5.07,8.86-9.33,18.16a218.78,218.78,0,0,0-17.66,63c-.22-2.47-.55-5.11-1-7.89a.25.25,0,0,0,0-.12,52.11,52.11,0,0,1,.56-13.6c2.62-5.24,9.49-20,4.73-21.69-5.31-1.86-7.17,15.59-6,22.06a50.33,50.33,0,0,0-.66,6.57,93.62,93.62,0,0,0-4.14-12.86c-1-5.93-4.27-21.55-9-20.08-5.38,1.66,3.49,16.83,8.23,21.35a94.34,94.34,0,0,1,5.37,20,34.88,34.88,0,0,0-7.89-12.27c-4.28-5.53-12.54-15.23-15.76-12.15C9,145.49,24.05,155.2,30.22,157a36.51,36.51,0,0,1,7.46,17c.16,2.19.24,4.2.26,6-.54,5.77-.77,11.57-.87,17.36.07,5.19.1,10.39.44,15.57-2.52-8.69-6.07-24.42-4.34-39.62a.62.62,0,0,0-.54-.68.6.6,0,0,0-.68.54c-2.15,19,3.82,38.8,5.93,45l.13,1.89c.13,1.51.35,3,.52,4.53l.55,4.52.27,2.26c.11.75.25,1.5.38,2.24l1.55,9,2,8.9A228.2,228.2,0,0,0,50,274.05c-.69-1-1.39-2-2.13-3a.76.76,0,0,0-.06-.16,77.41,77.41,0,0,1-8-17.65c.08-7.57-.18-34.15-8-33.2-8.59,1,1.27,27.16,7,34.19a76.88,76.88,0,0,0,4.24,10.61,139.65,139.65,0,0,0-14.53-15.44c-4.4-6.12-20.42-27.41-26.13-22-6.24,5.9,16.82,20.9,25.74,23.32A142.36,142.36,0,0,1,49.88,276a53.43,53.43,0,0,0-18.22-12.31c-8.38-4.25-29-13.86-31.44-7-2.95,8.11,24.63,11.16,33.58,9.28a54.65,54.65,0,0,1,18.79,14.92q2.92,7.41,6.37,14.59C49.91,284.67,37.55,273.5,24.5,272.1a.61.61,0,0,0-.13,1.22c14.35,1.53,28.17,15.76,37.3,27.52q4.65,9,10.16,17.54,4.8,7.42,10.17,14.46L80.73,332a.52.52,0,0,0-.19-.17,7.77,7.77,0,0,0-.71-.4c-3.68-2.31-7.83-4.7-12.43-7a.63.63,0,0,0-.12-.11,77.23,77.23,0,0,1-15.2-12c-3.41-6.77-15.86-30.25-22.34-25.82C22.6,291.38,43.36,310,51.67,313.65a78.84,78.84,0,0,0,8.65,7.47,140,140,0,0,0-20-7C33.6,310.68,9.58,299.13,7,306.55c-2.83,8.11,24.54,10.82,33.58,8.88a142.77,142.77,0,0,1,30.86,12.5,53.49,53.49,0,0,0-21.84-2.55c-9.39.07-32.09,1-31.16,8.2,1.11,8.56,27-1.41,34.08-7.2a55,55,0,0,1,26.75,6.15c1.84,1.16,3.54,2.29,5.13,3.38q4.65,5.88,9.69,11.43c4.49,4.9,9.24,9.56,14.18,14-17.06-10-42.73-21-63.09-12.58a.61.61,0,0,0,.47,1.13c22.54-9.37,51.91,5.81,68.19,16.31q3.53,3,7.18,5.81a226.43,226.43,0,0,0,22.93,15.44l-.67-.18a.7.7,0,0,0-.23-.1s-.3-.07-.78-.15c-4.23-1-8.92-2-14-2.77a.52.52,0,0,0-.15-.07,77.33,77.33,0,0,1-18.19-6.65c-5.35-5.36-24.53-23.76-29.29-17.53-5.26,6.87,20.29,18.09,29.32,18.92a78,78,0,0,0,10.55,4.39,139.17,139.17,0,0,0-21.2-.42c-7.45-1.13-33.87-4.59-34,3.27-.15,8.58,26.69,2.6,34.67-2.08a142.68,142.68,0,0,1,33.2,2.22,53.59,53.59,0,0,0-21.52,4.41c-8.9,3-30.17,11-27,17.55,3.73,7.77,25.2-9.8,30.11-17.51A55.08,55.08,0,0,1,142,388.21c2.23.56,4.31,1.13,6.26,1.7,1.13.64,2.27,1.26,3.42,1.88a216.48,216.48,0,0,0,33.58,14.1,207.13,207.13,0,0,0,35.37,8.2A219.55,219.55,0,0,0,256.75,416a.31.31,0,0,0,.3-.29A.32.32,0,0,0,256.75,415.41ZM124.38,26.19c3.65-2.85,7.4-5.58,11.21-8.2a51.38,51.38,0,0,1-9.88,8.36.6.6,0,0,1-.08.08c-2,1.1-3.88,2.21-5.63,3.31C121.45,28.54,122.91,27.35,124.38,26.19ZM55,130.78a27.82,27.82,0,0,1-3.49,7.73l0,.06c-.38.51-.75,1-1.11,1.5,1.37-3.15,2.92-6.45,4.65-9.73C55,130.49,55,130.64,55,130.78ZM166.47,384.19a77.82,77.82,0,0,1,15.16,12.05.58.58,0,0,0,.35.17,65.51,65.51,0,0,0,8.93,7l-1.6-.57a136.3,136.3,0,0,1-27.69-19.87C163.59,383.48,165.27,383.9,166.47,384.19Z"/></g></g></svg>