<svg xmlns="http://www.w3.org/2000/svg" viewBox="0 0 257.05 416.13"><defs><style>.cls-1{fill:#231f20;}</style></defs><g id="Capa_2" data-name="Capa 2"><g id="Layer_1" data-name="Layer 1"><path class="cls-1" d="M223.25,265.91c8.94,1.88,36.52-1.17,33.58-9.28-2.48-6.82-23.06,2.79-31.44,7A53.39,53.39,0,0,0,207.16,276a142,142,0,0,1,21.65-25.3c8.92-2.43,32-17.43,25.75-23.33-5.71-5.39-21.73,15.9-26.14,22a140.47,140.47,0,0,0-14.52,15.44,78.16,78.16,0,0,0,4.24-10.61c5.72-7,15.58-33.14,7-34.19-7.79-1-8,25.62-8,33.2a77.66,77.66,0,0,1-8,17.65.47.47,0,0,0-.06.15q-1.11,1.53-2.13,3a230.93,230.93,0,0,0,6.76-22.51l2-8.9,1.56-9c.12-.74.27-1.49.38-2.24l.27-2.26.54-4.52c.18-1.51.39-3,.53-4.53l.13-1.89c2.11-6.23,8.08-26,5.92-45a.61.61,0,1,0-1.21.14c1.72,15.19-1.83,30.92-4.35,39.62.35-5.18.38-10.38.45-15.57-.11-5.79-.33-11.59-.87-17.36,0-1.82.09-3.83.25-6a36.73,36.73,0,0,1,7.46-17c6.17-1.79,21.22-11.51,17.12-15.45-3.22-3.08-11.49,6.62-15.76,12.15a34.78,34.78,0,0,0-7.9,12.27,94.94,94.94,0,0,1,5.37-20c4.75-4.52,13.62-19.69,8.24-21.35-4.76-1.47-8,14.15-9,20.08a92.27,92.27,0,0,0-4.14,12.86,50.33,50.33,0,0,0-.66-6.57c1.13-6.47-.74-23.92-6.05-22.06-4.75,1.66,2.12,16.45,4.73,21.69a51.61,51.61,0,0,1,.56,13.6s0,.08,0,.12c-.47,2.78-.8,5.42-1,7.89a218.44,218.44,0,0,0-17.65-63q-4.26-9.28-9.33-18.16c-.1-.41-.19-.82-.27-1.24.5-5.84,1.44-22.12-3.59-21.91-4,.16-2.75,9-.42,16-1.33-2.13-2.68-4.23-4.07-6.31-.57-.84-1.15-1.67-1.73-2.5-6.27-14.33-8.37-35.68-8.4-35.94a.63.63,0,0,0-.66-.55.61.61,0,0,0-.55.67c.08.94,1.75,17.82,6.64,31.66a225.92,225.92,0,0,0-17.93-21.6l-1.12-1.16A50.12,50.12,0,0,1,155.88,42a19.81,19.81,0,0,1-.73-10.48c2.58-2.89,6.78-10.8,3.9-11.6-2.07-.57-3.45,4.58-4.18,8.43a18.12,18.12,0,0,0-1.36,7.35,50.72,50.72,0,0,1-2-9.56c.94-3.89,1.05-12.36-1.8-11.8-2.39.48-.67,7.16.48,10.86a50.4,50.4,0,0,0,1.09,7,26.6,26.6,0,0,0-1.69-2.27c-1.62-3.73-6.46-10.4-8.39-8.28-1.69,1.85,4,6.39,7.07,8.63a27.72,27.72,0,0,1,4.48,7.2s0,0,0,0c.61,1.78,1.26,3.4,1.91,4.86a3.24,3.24,0,0,0,.14.35s0,0,0,.06c.34.75.68,1.45,1,2.1a225.58,225.58,0,0,0-22.5-19.63q-6.37-4.8-13.07-9.13c-3-6.07-9.51-18.25-13.43-15.76-2.42,1.54-.34,5.5,3,9.42q-3.48-2-7-3.88a.31.31,0,0,0-.29.54q4.63,2.55,9.14,5.32a42.1,42.1,0,0,0,8.69,7,51.11,51.11,0,0,0,4.75,4.58,95.41,95.41,0,0,0-12.66-4.72c-5.3-2.85-19.56-10-21.36-5.35-2,5.25,15.38,7.69,21.87,6.77a93.9,93.9,0,0,1,19,8.18,34.7,34.7,0,0,0-14.52-1.41c-7-.07-19.73.4-19.3,4.84.55,5.66,17.5-.13,22.73-3.86a36.49,36.49,0,0,1,18,4.68A94.9,94.9,0,0,1,147,38.54c4.13,3.87,8.13,7.89,12,12.05q5,5.43,9.51,11.19c-1.19-.81-2.56-1.67-4.08-2.56a.38.38,0,0,0-.12-.1l-.45-.23c-1.89-1.08-4-2.18-6.33-3.23,0,0,0,0-.07-.06a39.06,39.06,0,0,1-8.58-6.42c-2.38-4.16-8.34-13.79-11.26-11.62-3.29,2.45,6.11,10.54,10.79,12.87a38.16,38.16,0,0,0,3.35,2.9,70,70,0,0,0-9.54-2.66c-4.55-2-14.62-5.94-15.66-2.54-1.2,3.95,11.31,4.88,16.4,3.95a69.77,69.77,0,0,1,13.69,4.52,25.06,25.06,0,0,0-10.59.31c-5.38.4-13.71,1.53-13.18,4.62.71,4.14,12.67-.87,16.63-4A27.39,27.39,0,0,1,163.38,60a69.38,69.38,0,0,1,7.8,5.18Q176.3,71.9,180.91,79c3.42,5.29,6.61,10.74,9.56,16.3a94.07,94.07,0,0,0-7.3-8.67c-3.16-5.13-11.91-18.46-15.79-15.34-4.39,3.52,9.43,14.36,15.51,16.82a94.23,94.23,0,0,1,12.05,16.1l.18.38a34.52,34.52,0,0,0-11.73-8.36c-6-3.57-17.27-9.55-19.12-5.5-2.37,5.17,15.2,8.67,21.59,8.06a36.19,36.19,0,0,1,11.22,10.05c.25.57.51,1.12.75,1.69a216.66,216.66,0,0,1,10.57,30.21,137.35,137.35,0,0,0-6.56-13.5c-.37-3.55-1.18-7.36-3-7.09a1.21,1.21,0,0,0-.93.68c-4.89-7.31-10.78-13.65-17.66-16.84a.61.61,0,0,0-.81.3.6.6,0,0,0,.3.81c7,3.24,13,10,17.95,17.75a24.33,24.33,0,0,0,3.37,8.88,24.45,24.45,0,0,0,1,2.67,51.8,51.8,0,0,0-5.21-4.8c-2.43-3-7-8.15-8.76-6.43-2.05,2.06,5,6.68,8.81,8.06a51.32,51.32,0,0,1,6.85,6.95,18,18,0,0,0-6.87-3c-3.6-1.53-8.65-3.24-9.32-1.21-.94,2.84,8,3.75,11.8,3.21a19.63,19.63,0,0,1,8.31,6.45c.7,1.11,1.29,2.15,1.8,3.09.46,1.19.88,2.34,1.27,3.42a211.75,211.75,0,0,1,4.38,29.42c.51,5.94.66,11.89.69,17.85-.15,5.94-.23,11.9-.84,17.82l-.36,4.45c-.15,1.48-.38,3-.57,4.42l-.59,4.42-.3,2.21c-.11.74-.26,1.46-.39,2.2l-1.63,8.76-.45,1.87q-.3-2.66-.85-5.84a.62.62,0,0,0,0-.19s0-.21-.13-.55c-.53-2.86-1.23-6-2.17-9.3,0,0,0-.07,0-.11a52.37,52.37,0,0,1-.91-13.59c2-5.49,7.27-20.94,2.36-22.07-5.48-1.28-5.45,16.28-3.63,22.59a51.08,51.08,0,0,0,.06,6.6,94.6,94.6,0,0,0-5.5-12.35c-1.69-5.78-6.58-21-11.15-19-5.17,2.23,5.28,16.35,10.49,20.34a95.22,95.22,0,0,1,7.5,19.3,34.76,34.76,0,0,0-9.18-11.35c-4.85-5-14.11-13.78-17-10.37-3.66,4.35,12.35,12.39,18.68,13.5a36.75,36.75,0,0,1,9.25,16.1,96.08,96.08,0,0,1,1.3,9.95l-.75,3.12q-1.41,5.4-3.1,10.71a58.24,58.24,0,0,0-10.58-34.88.61.61,0,0,0-1,.69,57,57,0,0,1,10.08,38.79,209.83,209.83,0,0,1-24.26,49.41q-3.9,5.93-8.19,11.57a44.61,44.61,0,0,0,2.5-17.4.61.61,0,0,0-.65-.57.61.61,0,0,0-.57.65,45,45,0,0,1-3.9,20.71q-5.28,6.71-11.05,13c-.72.8-1.46,1.58-2.19,2.37,1.53-3.26,3.25-7.27,5-11.93a.74.74,0,0,0,.13-.21s.09-.31.23-.79c1.46-4.08,2.89-8.64,4.14-13.61a.56.56,0,0,0,.09-.17,77.46,77.46,0,0,1,8.44-17.44c5.88-4.8,26.1-22,20.38-27.39-6.31-5.92-20,18.38-21.76,27.28a79.69,79.69,0,0,0-5.43,10.06,140,140,0,0,0,2.55-21.05c1.87-7.3,7.95-33.25.15-34.17-8.53-1-5.26,26.3-1.41,34.71A142.08,142.08,0,0,1,163,323.53a53.44,53.44,0,0,0-2.22-21.87c-2.11-9.16-7.93-31.12-14.75-28.65-8.12,2.94,7.22,26.06,14.4,31.72a54.94,54.94,0,0,1-.22,27.44,139.3,139.3,0,0,1-6.92,16.15,219,219,0,0,1-21,18.88,223.25,223.25,0,0,1-29.48,19.85A227.28,227.28,0,0,1,74.47,400.3a129.58,129.58,0,0,0,23.39-18c10.27-2.95,25.15-8.28,23-13.93-1.29-3.34-6-2.56-11.39,0,5.77-8.74,9.8-18.84,10.31-30.25a.61.61,0,0,0-1.22,0c-.53,11.95-5,22.46-11.33,31.43-7.15,3.87-14.93,10.16-17.8,14a76.51,76.51,0,0,0-6.78,4.72,83.2,83.2,0,0,0,9-14.46c5-5.95,21.42-26.42,14.84-30.6-7.29-4.63-16.24,21.69-16.31,30.8C83.56,387,75.25,395.56,67.31,401.12a46.89,46.89,0,0,0,10.36-19.46c4.15-7.22,16.24-29.93,6.07-33.14-8.4-2.65-10.28,26.31-7.68,34.48A46.92,46.92,0,0,1,62.7,404.06l-2,1.12A202.78,202.78,0,0,1,36,411.34,243,243,0,0,1,.3,415.41a.32.32,0,0,0-.3.3.31.31,0,0,0,.3.31,219.43,219.43,0,0,0,36.11-1.93,207,207,0,0,0,35.38-8.2,216.89,216.89,0,0,0,33.58-14.1c1.14-.62,2.29-1.24,3.42-1.88,1.95-.57,4-1.14,6.25-1.69a54.81,54.81,0,0,1,27.29,2.53c4.91,7.7,26.39,25.28,30.12,17.51,3.14-6.55-18.12-14.54-27-17.55a53.48,53.48,0,0,0-21.54-4.4,142.23,142.23,0,0,1,33.21-2.23c8,4.68,34.83,10.66,34.68,2.08-.14-7.86-26.57-4.4-34-3.27a139.07,139.07,0,0,0-21.19.42,78.58,78.58,0,0,0,10.55-4.39c9-.83,34.58-12.05,29.32-18.92-4.77-6.23-23.94,12.17-29.3,17.53A77,77,0,0,1,129,384.18l-.15.07c-5.09.75-9.79,1.72-14,2.77-.48.08-.76.14-.79.15a.94.94,0,0,0-.23.1l-.66.18A227.56,227.56,0,0,0,136,372c2.43-1.89,4.83-3.84,7.19-5.82,16.28-10.5,45.64-25.67,68.18-16.3a.61.61,0,0,0,.47-1.13c-20.36-8.46-46,2.58-63.1,12.59,4.94-4.45,9.7-9.11,14.19-14q5-5.54,9.68-11.43c1.59-1.09,3.3-2.23,5.14-3.38a54.93,54.93,0,0,1,26.74-6.15c7.07,5.78,33,15.76,34.08,7.2.94-7.2-21.75-8.13-31.15-8.2a53.42,53.42,0,0,0-21.83,2.55,143.08,143.08,0,0,1,30.84-12.51c9,1.95,36.42-.76,33.58-8.87-2.59-7.42-26.6,4.13-33.33,7.53a140.29,140.29,0,0,0-20,7,79.76,79.76,0,0,0,8.64-7.47c8.32-3.62,29.07-22.27,21.93-27.15-6.47-4.43-18.93,19.05-22.34,25.82a77.34,77.34,0,0,1-15.19,12,.69.69,0,0,0-.13.11c-4.59,2.31-8.74,4.7-12.42,7-.44.23-.7.38-.72.4a.58.58,0,0,0-.18.17l-1.28.82q5.37-7,10.18-14.46,5.52-8.52,10.16-17.55c9.12-11.75,23-26,37.3-27.51a.61.61,0,0,0,.54-.67.63.63,0,0,0-.67-.55c-13.06,1.4-25.41,12.57-34.46,23.32q3.45-7.19,6.37-14.59A54.55,54.55,0,0,1,223.25,265.91ZM131.34,26.35A51.26,51.26,0,0,1,121.45,18q5.73,3.93,11.21,8.2c1.48,1.16,2.93,2.35,4.38,3.55-1.74-1.1-3.61-2.21-5.62-3.31A.6.6,0,0,1,131.34,26.35Zm74.25,112.16a27.84,27.84,0,0,1-3.5-7.73c0-.14,0-.29,0-.44,1.73,3.28,3.27,6.57,4.64,9.72-.35-.49-.72-1-1.11-1.49C205.6,138.55,205.6,138.53,205.59,138.51ZM67.72,402.81l-1.58.57a65.51,65.51,0,0,0,8.93-7,.61.61,0,0,0,.35-.17,77.45,77.45,0,0,1,15.16-12.05c1.2-.29,2.88-.71,4.84-1.25A135.66,135.66,0,0,1,67.72,402.81Z"/></g></g></svg>